# xmcd
#
# Track frame offsets:
#	183
#	14470
#	34145
#	48483
#	61745
#	76370
#	92358
#	105670
#	121320
#	134183
#	146245
#	158720
#
# Disc length: 2310 seconds
#
# Revision: 3
# Processed by: cddbd v1.5.2PL0 Copyright (c) Steve Scherf et al.
# Submitted via: EasyCDDAExtractor 10.0.2.1
#
DISCID=a009040c
DTITLE=Various Artist - New Stars Of Country
DYEAR=1990
DGENRE=Country
TTITLE0=SweetHearts Of The Rodeo - Chains Of Gold
TTITLE1=Bellamy Brothers - If I Said You Had A Beautiful Body (Would You Hold 
TTITLE1=It Against Me)
TTITLE2=Earl Thomas Conley - Love Don't Care (Whose Heart It Breaks)
TTITLE3=Patty Loveless - It's What You Don't Do
TTITLE4=Nitty Gritty Dirt Band - Home Again In My Heart
TTITLE5=Lorrie Morgan - You're Getting To Me Again
TTITLE6=Kathy Mattea - Ball And Chain
TTITLE7=Lee GreenWood - Fool's Gold
TTITLE8=Ronnie McDowell - Wandering Eyes
TTITLE9=Forester Sisters - Dixie Man
TTITLE10=Kieran Kane - You're The Best
TTITLE11=Eddy Raven - Who Do You Know In California
EXTD=
EXTT0=
EXTT1=
EXTT2=
EXTT3=
EXTT4=
EXTT5=
EXTT6=
EXTT7=
EXTT8=
EXTT9=
EXTT10=
EXTT11=
PLAYORDER=
